Coordinates
version=1
nRows=8
nColumns=40
inDegrees=yes

Units are S.I. units (second, meters, Newtons, ...)
Angles are in degrees.

endheader
time	pelvis_tilt	pelvis_list	pelvis_rotation	pelvis_tx	pelvis_ty	pelvis_tz	hip_flexion_r	hip_adduction_r	hip_rotation_r	knee_angle_r	knee_angle_r_beta	ankle_angle_r	subtalar_angle_r	mtp_angle_r	hip_flexion_l	hip_adduction_l	hip_rotation_l	knee_angle_l	knee_angle_l_beta	ankle_angle_l	subtalar_angle_l	mtp_angle_l	lumbar_extension	lumbar_bending	lumbar_rotation	arm_flex_r	arm_add_r	arm_rot_r	elbow_flex_r	pro_sup_r	wrist_flex_r	wrist_dev_r	arm_flex_l	arm_add_l	arm_rot_l	elbow_flex_l	pro_sup_l	wrist_flex_l	wrist_dev_l
      5.49000000	     -2.98981480	     -3.69603523	      0.59471301	      0.96342929	      0.92366269	      0.43027515	      7.71788335	     -7.41841374	     -8.99412234	     46.90701033	     46.90701033	      4.26838936	     -8.88588040	    -17.65036230	     18.37096794	     -2.16346671	     -0.50086072	     29.02782746	     29.02782746	     15.87092760	    -15.10901334	      5.07262254	     -7.20489094	      4.76105519	      4.06511435	     34.30770869	    -14.51689183	    -12.48011233	     57.15511759	     44.83774320	      0.00000000	      0.00000000	      6.00168350	    -12.58815388	     14.91066848	     36.77045659	     44.90421115	      0.00000000	      0.00000000
      5.50942857	     -2.80369476	     -3.75800997	      0.14540063	      0.96235205	      0.92253307	      0.42750497	     10.00124506	     -7.55605008	     -8.10426329	     50.84849326	     50.84849326	      2.87092443	    -11.99795235	    -16.36048709	     18.12195102	     -2.11833468	     -0.81560230	     29.72213198	     29.72213198	     16.48392812	    -15.35791675	      4.95624266	     -7.40598980	      5.01592969	      3.86217820	     30.72870110	    -14.20963939	    -12.50392567	     55.09608716	     44.90715452	      0.00000000	      0.00000000	      7.96912361	    -12.94845880	     14.60627545	     37.72764100	     44.97911281	      0.00000000	      0.00000000
      5.52885714	     -2.56073410	     -3.80794461	     -0.31493306	      0.96132755	      0.92146661	      0.42483052	     12.27528972	     -7.66120333	     -7.27558275	     54.81418684	     54.81418684	      3.13455322	    -13.44735557	    -10.69952948	     17.80022528	     -2.07102970	     -1.15551203	     30.45108302	     30.45108302	     17.44824518	    -15.38777944	      5.53896289	     -7.63332743	      5.26169398	      3.54856332	     27.72583946	    -13.60559876	    -13.18779293	     51.45739995	     45.10600427	      0.00000000	      0.00000000	      9.98849053	    -13.39097618	     14.31261938	     38.56038676	     45.09905116	      0.00000000	      0.00000000
      5.54828571	     -2.31438617	     -3.85106125	     -0.79541122	      0.96032088	      0.92052270	      0.42233130	     14.36914143	     -7.67567094	     -6.48064080	     58.14618552	     58.14618552	      3.39584815	    -14.73504582	     -5.72294363	     17.38933843	     -2.00025731	     -1.45531446	     31.01481144	     31.01481144	     18.13411322	    -15.62358758	      5.70912106	     -7.92032924	      5.50090141	      3.39166692	     24.60296637	    -13.22865827	    -13.54289991	     47.94247117	     45.28053579	      0.00000000	      0.00000000	     12.12337887	    -13.84150588	     13.79148826	     39.45611626	     45.24674969	      0.00000000	      0.00000000
      5.56771429	     -2.08621612	     -3.93083643	     -1.27189964	      0.95938299	      0.91982120	      0.42004452	     16.16633413	     -7.58810644	     -5.83724210	     60.53059156	     60.53059156	      2.87188966	    -16.28077165	     -4.10078693	     16.89725371	     -1.96254805	     -1.73263632	     31.38279890	     31.38279890	     18.64962591	    -15.89978766	      5.62426206	     -8.21899669	      5.79100267	      3.51253065	     21.00896123	    -13.22541535	    -13.59092950	     45.29718873	     45.37102678	      0.00000000	      0.00000000	     14.28258908	    -14.21203077	     13.31724513	     40.57930122	     45.34280000	      0.00000000	      0.00000000
      5.58714286	     -1.88735206	     -3.98805638	     -1.77901496	      0.95839922	      0.91943637	      0.41824489	     18.00011116	     -7.37531896	     -5.13111241	     62.58570464	     62.58570464	      4.28528095	    -16.54740522	      1.76763789	     16.36252631	     -1.95352812	     -2.12855154	     31.61375510	     31.61375510	     19.26929753	    -15.97207799	      5.93041054	     -8.45691702	      6.02593557	      3.13923808	     18.64134338	    -12.65012631	    -14.28268345	     40.54748796	     45.60294943	      0.00000000	      0.00000000	     16.29197261	    -14.83221087	     12.64666366	     41.27785734	     45.48432129	      0.00000000	      0.00000000
      5.60657143	     -1.72842703	     -4.04228278	     -2.31421672	      0.95743685	      0.91942016	      0.41680493	     19.51780826	     -7.13407824	     -4.58624657	     63.51300245	     63.51300245	      4.34527659	    -17.25458568	      2.28138031	     15.72329350	     -1.94377948	     -2.52229450	     31.55014726	     31.55014726	     19.61961003	    -16.13278361	      5.91719714	     -8.72744351	      6.26617407	      3.22615536	     15.21439466	    -12.58653928	    -14.32701414	     38.30246790	     45.67583844	      0.00000000	      0.00000000	     18.34589923	    -15.36912037	     12.09356268	     42.52189520	     45.58018141	      0.00000000	      0.00000000
      5.62600000	     -1.59597679	     -4.17072099	     -2.87942188	      0.95643855	      0.91986375	      0.41588330	     20.87811496	     -6.69451094	     -4.08732352	     63.66366751	     63.66366751	      4.80482865	    -17.57387333	      2.92801266	     14.99981431	     -2.04600812	     -2.94879103	     31.27707615	     31.27707615	     19.92780197	    -16.19033630	      5.95217539	     -8.99804026	      6.56336773	      3.36807459	     11.98835198	    -12.52795978	    -14.38736236	     35.75562216	     45.76467938	      0.00000000	      0.00000000	     20.37483145	    -15.94594306	     11.48581130	     43.81901132	     45.67935969	      0.00000000	      0.00000000
